<svg width="22" height="22" viewBox="0 0 22 22" fill="none" xmlns="http://www.w3.org/2000/svg">
<path d="M12.8334 19.25H9.1667M16.5 7.33337C16.5 5.87468 15.9206 4.47574 14.8891 3.44429C13.8577 2.41284 12.4587 1.83337 11 1.83337C9.54135 1.83337 8.1424 2.41284 7.11095 3.44429C6.0795 4.47574 5.50004 5.87468 5.50004 7.33337C5.50004 10.166 4.78547 12.1055 3.98723 13.3883C3.3139 14.4704 2.97724 15.0115 2.98959 15.1624C3.00325 15.3295 3.03866 15.3933 3.17333 15.4932C3.29496 15.5834 3.84325 15.5834 4.93982 15.5834H17.0603C18.1568 15.5834 18.7051 15.5834 18.8267 15.4932C18.9614 15.3933 18.9968 15.3295 19.0105 15.1624C19.0228 15.0115 18.6862 14.4704 18.0128 13.3883C17.2146 12.1055 16.5 10.166 16.5 7.33337Z" stroke="#1D2939" stroke-width="1.5" stroke-linecap="round" stroke-linejoin="round"/>
</svg>
