<svg width="20" height="21" viewBox="0 0 20 21" fill="none" xmlns="http://www.w3.org/2000/svg">
<path d="M10.0002 11.6017C10.4604 11.6017 10.8335 11.2286 10.8335 10.7684C10.8335 10.3082 10.4604 9.93506 10.0002 9.93506C9.53993 9.93506 9.16683 10.3082 9.16683 10.7684C9.16683 11.2286 9.53993 11.6017 10.0002 11.6017Z" stroke="#667085" stroke-width="1.5" stroke-linecap="round" stroke-linejoin="round"/>
<path d="M15.8335 11.6017C16.2937 11.6017 16.6668 11.2286 16.6668 10.7684C16.6668 10.3082 16.2937 9.93506 15.8335 9.93506C15.3733 9.93506 15.0002 10.3082 15.0002 10.7684C15.0002 11.2286 15.3733 11.6017 15.8335 11.6017Z" stroke="#667085" stroke-width="1.5" stroke-linecap="round" stroke-linejoin="round"/>
<path d="M4.16683 11.6017C4.62707 11.6017 5.00016 11.2286 5.00016 10.7684C5.00016 10.3082 4.62707 9.93506 4.16683 9.93506C3.70659 9.93506 3.3335 10.3082 3.3335 10.7684C3.3335 11.2286 3.70659 11.6017 4.16683 11.6017Z" stroke="#667085" stroke-width="1.5" stroke-linecap="round" stroke-linejoin="round"/>
</svg>
