<svg width="18" height="16" viewBox="0 0 18 16" fill="none" xmlns="http://www.w3.org/2000/svg">
<path d="M16.3261 8.27448C16.5296 8.10011 16.6313 8.01292 16.6686 7.90917C16.7013 7.81811 16.7013 7.71851 16.6686 7.62745C16.6313 7.5237 16.5296 7.43651 16.3261 7.26214L9.26719 1.21162C8.917 0.911456 8.74191 0.761374 8.59367 0.757697C8.46483 0.754501 8.34177 0.811102 8.26035 0.911C8.16667 1.02595 8.16667 1.25656 8.16667 1.71779V5.29717C6.38777 5.60838 4.75966 6.50977 3.54976 7.8632C2.23069 9.33874 1.50103 11.2483 1.5 13.2274V13.7374C2.37445 12.684 3.46626 11.8321 4.70063 11.2399C5.78891 10.7178 6.96535 10.4086 8.16667 10.3271V13.8188C8.16667 14.2801 8.16667 14.5107 8.26035 14.6256C8.34177 14.7255 8.46483 14.7821 8.59367 14.7789C8.74191 14.7752 8.917 14.6252 9.26719 14.325L16.3261 8.27448Z" stroke="#667085" stroke-width="1.5" stroke-linecap="round" stroke-linejoin="round"/>
</svg>
