<svg width="20" height="21" viewBox="0 0 20 21" fill="none" xmlns="http://www.w3.org/2000/svg">
<path d="M17.4998 10.3516C17.4998 14.2637 14.3285 17.435 10.4165 17.435C9.5192 17.435 8.66086 17.2681 7.87081 16.9638C7.72637 16.9081 7.65414 16.8803 7.59671 16.867C7.54022 16.854 7.49933 16.8486 7.4414 16.8464C7.3825 16.8441 7.31789 16.8508 7.18865 16.8642L2.92113 17.3053C2.51427 17.3473 2.31083 17.3684 2.19083 17.2952C2.08631 17.2314 2.01512 17.1249 1.99617 17.004C1.97441 16.8651 2.07162 16.6851 2.26605 16.3253L3.62909 13.8023C3.74135 13.5945 3.79747 13.4907 3.82289 13.3908C3.848 13.2921 3.85407 13.221 3.84604 13.1195C3.83791 13.0167 3.79282 12.883 3.70266 12.6155C3.46306 11.9046 3.33318 11.1433 3.33318 10.3516C3.33318 6.43963 6.5045 3.26831 10.4165 3.26831C14.3285 3.26831 17.4998 6.43963 17.4998 10.3516Z" stroke="#667085" stroke-width="1.5" stroke-linecap="round" stroke-linejoin="round"/>
</svg>
