<svg width="22" height="22" viewBox="0 0 22 22" fill="none" xmlns="http://www.w3.org/2000/svg">
<path d="M6.875 11H6.88417M11 11H11.0092M15.125 11H15.1342M11 19.25C15.5563 19.25 19.25 15.5563 19.25 11C19.25 6.44365 15.5563 2.75 11 2.75C6.44365 2.75 2.75 6.44365 2.75 11C2.75 12.0974 2.96426 13.1447 3.35322 14.1025C3.42767 14.2858 3.46489 14.3774 3.4815 14.4515C3.49774 14.524 3.50368 14.5776 3.50369 14.6519C3.5037 14.7278 3.48992 14.8105 3.46235 14.9759L2.91878 18.2373C2.86186 18.5788 2.8334 18.7496 2.88636 18.8731C2.93272 18.9812 3.01884 19.0673 3.12692 19.1136C3.2504 19.1666 3.42117 19.1381 3.7627 19.0812L7.0241 18.5377C7.1895 18.5101 7.2722 18.4963 7.34812 18.4963C7.42239 18.4963 7.47602 18.5023 7.54849 18.5185C7.62258 18.5351 7.71423 18.5723 7.89753 18.6468C8.85528 19.0357 9.90262 19.25 11 19.25ZM7.33333 11C7.33333 11.2531 7.12813 11.4583 6.875 11.4583C6.62187 11.4583 6.41667 11.2531 6.41667 11C6.41667 10.7469 6.62187 10.5417 6.875 10.5417C7.12813 10.5417 7.33333 10.7469 7.33333 11ZM11.4583 11C11.4583 11.2531 11.2531 11.4583 11 11.4583C10.7469 11.4583 10.5417 11.2531 10.5417 11C10.5417 10.7469 10.7469 10.5417 11 10.5417C11.2531 10.5417 11.4583 10.7469 11.4583 11ZM15.5833 11C15.5833 11.2531 15.3781 11.4583 15.125 11.4583C14.8719 11.4583 14.6667 11.2531 14.6667 11C14.6667 10.7469 14.8719 10.5417 15.125 10.5417C15.3781 10.5417 15.5833 10.7469 15.5833 11Z" stroke="#1D2939" stroke-width="1.5" stroke-linecap="round" stroke-linejoin="round"/>
</svg>
