<svg width="22" height="22" viewBox="0 0 22 22" fill="none" xmlns="http://www.w3.org/2000/svg">
<path d="M3.28564 7.33974L13.5714 7.33974M13.5714 7.33974C13.5714 8.7599 14.7226 9.91117 16.1428 9.91117C17.5629 9.91117 18.7142 8.7599 18.7142 7.33974C18.7142 5.91958 17.5629 4.76831 16.1428 4.76831C14.7226 4.76831 13.5714 5.91958 13.5714 7.33974ZM8.4285 14.1969L18.7142 14.1969M8.4285 14.1969C8.4285 15.617 7.27723 16.7683 5.85707 16.7683C4.43691 16.7683 3.28564 15.617 3.28564 14.1969C3.28564 12.7767 4.43691 11.6255 5.85707 11.6255C7.27723 11.6255 8.4285 12.7767 8.4285 14.1969Z" stroke="black" stroke-width="1.5" stroke-linecap="round" stroke-linejoin="round"/>
</svg>
